<svg xmlns="http://www.w3.org/2000/svg" xmlns:xlink="http://www.w3.org/1999/xlink">
<symbol id="icon-now" viewBox="0 0 20 20">
<title>now</title>
<path d="M18.807,0.337h-3.616v1.808c0,0.475-0.384,0.859-0.859,0.859c-0.474,0-0.859-0.384-0.859-0.859V0.337H6.731
v1.808c0,0.475-0.384,0.859-0.859,0.859c-0.474,0-0.859-0.384-0.859-0.859V0.337h-3.82c-0.474,0-0.859,0.384-0.859,0.859v17.61
c0,0.477,0.384,0.859,0.859,0.859h17.613c0.474,0,0.859-0.382,0.859-0.859V1.195C19.665,0.721,19.281,0.337,18.807,0.337z
M17.948,17.946H2.052V4.528h15.896V17.946z"></path>
</symbol>
</svg>